<svg width="144" height="144" viewBox="0 0 144 144" fill="none" xmlns="http://www.w3.org/2000/svg">
<path fill-rule="evenodd" clip-rule="evenodd" d="M71.6222 144C65.8135 144 62.0199 143.327 61.5563 143.24C57.7847 142.535 55.2723 138.758 55.9464 134.805C56.6181 130.858 60.2163 128.228 63.9762 128.923C65.2145 129.145 93.2422 133.857 114.525 111.555C117.232 108.715 121.627 108.715 124.335 111.555C127.045 114.393 127.045 118.996 124.335 121.836C106.188 140.854 84.1891 144 71.6222 144Z" fill="#71F3F8"/>
<path fill-rule="evenodd" clip-rule="evenodd" d="M136.055 84.2796C135.604 84.2796 135.147 84.2319 134.688 84.1318C131.079 83.3447 128.763 79.6459 129.515 75.8679C134.372 51.4639 121.852 32.6495 121.726 32.4621C119.598 29.3256 120.284 24.9666 123.273 22.7266C126.262 20.4865 130.409 21.1863 132.56 24.3041C133.221 25.2623 148.672 48.1108 142.581 78.718C141.925 82.014 139.149 84.2796 136.055 84.2796Z" fill="#71F3F8"/>
<mask id="mask0_22_12647" style="mask-type:alpha" maskUnits="userSpaceOnUse" x="103" y="0" width="18" height="18">
<path fill-rule="evenodd" clip-rule="evenodd" d="M103.692 0H120.223V17.6034H103.692V0Z" fill="white"/>
</mask>
<g mask="url(#mask0_22_12647)">
<path fill-rule="evenodd" clip-rule="evenodd" d="M113.604 17.604C112.343 17.604 111.069 17.1941 109.943 16.3366L106.637 13.8221C103.599 11.5112 102.778 6.82788 104.803 3.36033C106.829 -0.105973 110.933 -1.0439 113.972 1.26823L117.278 3.78277C120.317 6.09364 121.138 10.777 119.112 14.2445C117.838 16.4246 115.741 17.604 113.604 17.604Z" fill="#71F3F8"/>
</g>
<path fill-rule="evenodd" clip-rule="evenodd" d="M66.7212 144C66.3204 144 65.914 143.963 65.5053 143.886C41.6097 139.388 23.8588 128.384 12.7436 111.176C-5.78634 82.4913 1.25907 47.2817 1.56754 45.7969C2.35224 42.021 5.94925 39.6214 9.59354 40.4325C13.2356 41.246 15.5548 44.9578 14.7768 48.728C14.7048 49.0846 8.67937 79.8283 24.0322 103.493C33.0411 117.379 47.8074 126.341 67.9213 130.127C71.5926 130.817 74.0267 134.457 73.3591 138.257C72.7657 141.634 69.923 144 66.7212 144Z" fill="#111233"/>
</svg>
