<svg width="12" height="11" viewBox="0 0 12 11" fill="none" xmlns="http://www.w3.org/2000/svg">
<path id="Union" opacity="0.15" fill-rule="evenodd" clip-rule="evenodd" d="M7.00047 5.5256C7.01398 5.49192 7.02715 5.45913 7.03997 5.42729H7.0155C7.51676 4.19517 9.04577 0.548085 9.04577 0.548085C9.29641 -0.0433295 9.67236 0.00598962 9.67236 0.00598962H11.3257C11.6766 -0.043295 11.8519 0.227761 11.8519 0.227761C12.1527 0.572753 11.9021 0.942371 11.9021 0.942371L9.69683 6.06797C9.69683 6.06797 8.81882 8.01025 8.21449 9.44331C8.21599 9.44358 8.21748 9.44384 8.21897 9.4441L7.76739 10.553C7.76739 10.553 7.76487 10.5601 7.75957 10.5725C7.71756 10.6803 7.65863 10.759 7.59498 10.8164C7.48768 10.9244 7.32466 11.0196 7.09063 10.9966H4.76053C4.76053 10.9966 4.38468 10.9473 4.2343 10.553C3.80822 9.39484 2.30437 6.06812 2.30437 6.06812L0.0978701 0.942515C0.0978701 0.942515 -0.152714 0.572897 0.148046 0.227905C0.148046 0.227905 0.323391 -0.0185092 0.674278 0.00613309H2.32885C2.32885 0.00613309 2.7048 -0.0678148 2.95543 0.5236L4.90983 5.42743H4.88536C4.88536 5.42743 5.26533 6.57914 5.97629 7.65374C6.44341 6.91308 6.77221 6.09412 7.00047 5.5256Z" fill="white"/>
</svg>
